Coordinates
version=1
nRows=26
nColumns=24
inDegrees=yes

Units are S.I. units (second, meters, Newtons, ...)
Angles are in degrees.

endheader
time	pelvis_tilt	pelvis_list	pelvis_rotation	pelvis_tx	pelvis_ty	pelvis_tz	hip_flexion_r	hip_adduction_r	hip_rotation_r	knee_angle_r	ankle_angle_r	subtalar_angle_r	mtp_angle_r	hip_flexion_l	hip_adduction_l	hip_rotation_l	knee_angle_l	ankle_angle_l	subtalar_angle_l	mtp_angle_l	lumbar_extension	lumbar_bending	lumbar_rotation
      2.85000000	    -12.29264564	      7.53076601	     -0.79809746	     -2.29278116	     -0.03299552	     -0.28742755	     17.99477133	    -15.07568938	     -9.44859822	    -61.52019427	    -24.63475031	    -19.20981729	      4.63897299	     29.43248036	      8.59871193	     -5.74475281	    -23.66148386	      0.00822601	    -15.17717551	     -8.04056658	      8.95239383	     -7.95910460	      3.59147818
      2.85500000	    -12.26955549	      7.29631314	     -0.66306547	     -2.28584509	     -0.03168473	     -0.28818224	     18.89570305	    -14.77715943	     -9.42010856	    -62.14862469	    -23.51092202	    -19.25400946	      5.04030067	     28.78934900	      8.50379683	     -5.52425149	    -23.41800220	      0.38661726	    -14.96835311	     -7.86950426	      8.84103761	     -7.72371086	      3.31221511
      2.86000000	    -12.26091953	      7.11827047	     -0.55829549	     -2.27885136	     -0.03039769	     -0.28890579	     19.81084962	    -14.54214905	     -9.36336525	    -62.69051046	    -22.38339370	    -19.10789443	      5.75063312	     28.13618466	      8.45902734	     -5.30385009	    -23.11591969	      0.67940040	    -14.86115460	     -7.71240749	      8.77023625	     -7.53855507	      3.09065820
      2.86500000	    -12.20536150	      6.81209482	     -0.47176733	     -2.27192572	     -0.02899388	     -0.28961256	     20.63670413	    -14.14575125	     -9.34414115	    -63.08630146	    -21.37261985	    -18.92157866	      6.26873823	     27.43874474	      8.28454455	     -5.03389994	    -22.82650924	      0.99200246	    -14.82564280	     -7.62996061	      8.63923286	     -7.20820199	      2.84470431
      2.87000000	    -12.13384698	      6.62990147	     -0.34986405	     -2.26500577	     -0.02764043	     -0.29045951	     21.40233692	    -13.92896190	     -9.30051794	    -63.30088874	    -20.89449120	    -18.86516334	     10.27018837	     26.70662664	      8.27368090	     -4.68110698	    -22.49199222	      1.20759787	    -14.87613375	     -7.81021653	      8.48928608	     -7.00298852	      2.60906859
      2.87500000	    -12.07309042	      6.39285140	     -0.26792896	     -2.25806763	     -0.02628123	     -0.29109873	     22.19658274	    -13.61124268	     -9.28882945	    -63.54119002	    -19.79197667	    -18.41183538	     10.82322540	     25.98033624	      8.16313863	     -4.39014020	    -22.14963129	      1.46013161	    -14.85010849	     -7.82825106	      8.36800107	     -6.75061077	      2.39851029
      2.88000000	    -11.99773648	      6.13984823	     -0.14915654	     -2.25117299	     -0.02495270	     -0.29182566	     22.93815786	    -13.30318605	     -9.34774522	    -63.68480804	    -18.69716035	    -17.90360047	     11.55039381	     25.24255944	      8.06001435	     -4.04602194	    -21.80767743	      1.69292171	    -14.90195581	     -7.91128504	      8.22018476	     -6.47932491	      2.16841922
      2.88500000	    -11.89291611	      5.89950072	     -0.04137216	     -2.24433483	     -0.02356114	     -0.29261803	     23.60110081	    -12.99768320	     -9.35000362	    -63.59215588	    -18.28385603	    -17.80091949	     15.33466282	     24.46085047	      7.98490034	     -3.63385132	    -21.45151785	      2.04251984	    -14.96639332	     -8.97661994	      8.03427220	     -6.20386716	      1.93110800
      2.89000000	    -11.83306001	      5.62767254	      0.07880237	     -2.23743747	     -0.02226384	     -0.29326309	     24.31224760	    -12.65107023	     -9.42862498	    -63.55418914	    -17.18220141	    -17.21357390	     15.84547106	     23.72217979	      7.83867741	     -3.32157711	    -21.06852132	      2.25985636	    -14.96513029	     -9.02044107	      7.91579850	     -5.91998162	      1.71072696
      2.89500000	    -11.72543167	      5.38134864	      0.21748182	     -2.23059507	     -0.02092655	     -0.29403524	     24.92345497	    -12.34378738	     -9.49473981	    -63.31939583	    -16.57119494	    -16.96730925	     18.66958158	     22.91402119	      7.75086180	     -2.90099868	    -20.65935682	      2.57126272	    -15.02915861	     -9.93153988	      7.73345300	     -5.64925207	      1.46738007
      2.90000000	    -11.66280841	      5.13140781	      0.35097576	     -2.22377534	     -0.01972062	     -0.29468043	     25.59694681	    -12.02137684	     -9.59746682	    -63.12293598	    -15.51342604	    -16.43523603	     19.14248314	     22.16679624	      7.61337299	     -2.63458928	    -20.24533909	      2.78089182	    -14.99423442	     -9.97229486	      7.60218426	     -5.38479890	      1.24991056
      2.90500000	    -11.55768209	      4.88392935	      0.50668137	     -2.21696599	     -0.01846480	     -0.29542642	     26.16644399	    -11.71643018	     -9.71193646	    -62.73349912	    -14.87192626	    -16.21142679	     21.51577059	     21.35290396	      7.50103758	     -2.28018363	    -19.80212094	      3.06442475	    -14.99405599	    -10.71126158	      7.42265100	     -5.11649269	      0.99581380
      2.91000000	    -11.49888250	      4.64881698	      0.64696741	     -2.21017657	     -0.01735545	     -0.29602836	     26.79981211	    -11.40307726	     -9.82638434	    -62.37291015	    -13.88215015	    -15.76418403	     21.91223341	     20.59623628	      7.35676964	     -2.06625416	    -19.34894172	      3.28043450	    -14.89110367	    -10.72884920	      7.29373275	     -4.87260792	      0.78720079
      2.91500000	    -11.43940304	      4.39870002	      0.80469320	     -2.20338521	     -0.01626957	     -0.29664331	     27.39581862	    -11.08196570	     -9.97571401	    -61.91304483	    -12.98682015	    -15.39273831	     22.31864853	     19.83520263	      7.19386823	     -1.87952904	    -18.87812039	      3.46547248	    -14.79969660	    -10.75858170	      7.16474755	     -4.61339866	      0.53435639
      2.92000000	    -11.34997043	      4.19441985	      0.97697401	     -2.19655626	     -0.01524211	     -0.29733274	     27.93228020	    -10.83503211	    -10.14553523	    -61.37972625	    -12.14204531	    -15.06323530	     22.83152951	     19.02043485	      7.08274451	     -1.68989669	    -18.37033891	      3.67584193	    -14.67828528	    -10.80766724	      7.01086753	     -4.39235003	      0.31918257
      2.92500000	    -11.27744033	      3.97807426	      1.13837073	     -2.18977401	     -0.01429039	     -0.29794853	     28.47281012	    -10.56117517	    -10.30545842	    -60.77029858	    -11.41861968	    -14.81605195	     23.33433477	     18.23078470	      6.94124142	     -1.52709397	    -17.86537562	      3.89212993	    -14.53074860	    -10.85834705	      6.86787390	     -4.16853878	      0.10382633
      2.93000000	    -11.24332425	      3.76213416	      1.27625714	     -2.18303177	     -0.01344524	     -0.29848600	     29.05004749	    -10.26654786	    -10.43440577	    -60.09888544	    -10.80794569	    -14.65149512	     23.68049991	     17.49106602	      6.78103223	     -1.40718667	    -17.36300323	      4.08426679	    -14.38379576	    -10.88351319	      6.76325304	     -3.93911067	     -0.12789008
      2.93500000	    -11.14991923	      3.58341245	      1.44346666	     -2.17621879	     -0.01263328	     -0.29907758	     29.52407319	    -10.05285774	    -10.62785505	    -59.35530410	    -10.26913963	    -14.52784363	     24.12852603	     16.66781156	      6.66508928	     -1.26902782	    -16.83615659	      4.31831982	    -14.18707369	    -10.92619340	      6.60545185	     -3.75327161	     -0.30788854
      2.94000000	    -11.12382108	      3.39791899	      1.58820531	     -2.16945665	     -0.01196637	     -0.29963012	     30.06930789	     -9.81518465	    -10.78847664	    -58.55863990	     -9.84814402	    -14.46448363	     24.40470383	     15.93759538	      6.52959931	     -1.17614376	    -16.33022793	      4.51500776	    -14.01996573	    -10.95172699	      6.51492444	     -3.55017983	     -0.51419221
      2.94500000	    -11.09125023	      3.23047329	      1.72434033	     -2.16269376	     -0.01138014	     -0.30013412	     30.59204771	     -9.59584352	    -10.94545327	    -57.70745833	     -9.50813780	    -14.42751166	     24.60554106	     15.19765617	      6.40438170	     -1.08387168	    -15.81896203	      4.71006179	    -13.85443494	    -10.96971626	      6.41696860	     -3.36987316	     -0.70360066
      2.95000000	    -11.06304250	      3.07898893	      1.85610024	     -2.15592996	     -0.01088877	     -0.30060307	     31.10398814	     -9.39649731	    -11.10204572	    -56.80587700	     -9.24217289	    -14.40612089	     24.74639647	     14.46521845	      6.28908856	     -0.99914866	    -15.31189214	      4.90042963	    -13.68761856	    -10.98410042	      6.32665988	     -3.20559480	     -0.88600633
      2.95500000	    -11.11792578	      2.95942762	      1.94743647	     -2.14918767	     -0.01060293	     -0.30103445	     31.71682016	     -9.21434630	    -11.20347150	    -55.87956378	     -9.03189042	    -14.38001618	     24.78506831	     13.82761633	      6.20046568	     -0.93252064	    -14.80869615	      5.05528107	    -13.58613680	    -10.98038101	      6.32720295	     -3.06303354	     -0.99940810
      2.96000000	    -11.03064666	      2.82130656	      2.10956192	     -2.14241301	     -0.01020027	     -0.30146164	     32.10070559	     -9.05550275	    -11.41473140	    -54.85046476	     -8.85591565	    -14.34354116	     24.84296617	     13.03843077	      6.08814099	     -0.86674055	    -14.31634307	      5.27202814	    -13.34451120	    -10.97307969	      6.16972907	     -2.92567283	     -1.23913730
      2.96500000	    -11.09625009	      2.72847524	      2.19249596	     -2.13565777	     -0.01010380	     -0.30182594	     32.68258808	     -8.90402368	    -11.51115506	    -53.81746781	     -8.71844615	    -14.27931804	     24.84515550	     12.41902989	      6.01626810	     -0.83786970	    -13.82588109	      5.42870124	    -13.23986303	    -10.96278146	      6.18412779	     -2.81396712	     -1.35141017
      2.97000000	    -11.03143262	      2.61769776	      2.33991937	     -2.12890026	     -0.00988949	     -0.30219715	     33.05585763	     -8.77058483	    -11.69771718	    -52.68903251	     -8.61394518	    -14.18079901	     24.83608389	     11.66406545	      5.91749610	     -0.81015003	    -13.35051905	      5.64108094	    -12.95747339	    -10.92497342	      6.04787754	     -2.69840827	     -1.57220819
      2.97500000	    -11.08228018	      2.54509290	      2.42300722	     -2.12214226	     -0.00995913	     -0.30250496	     33.57406358	     -8.64834872	    -11.81067877	    -51.55231823	     -8.50730107	    -14.06292000	     24.81401393	     11.03584121	      5.85545080	     -0.83081789	    -12.87357933	      5.82423914	    -12.81101575	    -10.89074050	      6.04302262	     -2.61327057	     -1.70274199
